<svg xmlns="http://www.w3.org/2000/svg" width="1640" height="278" viewBox="0 0 1640 278" role="img" aria-label="Codex Token Activity">
<rect width="100%" height="100%" rx="18" fill="#141414"/>
<rect x="28" y="24" width="24" height="24" rx="5" fill="#242424"><title>2025-06-15: 0 tokens</title></rect>
<rect x="28" y="54" width="24" height="24" rx="5" fill="#242424"><title>2025-06-16: 0 tokens</title></rect>
<rect x="28" y="84" width="24" height="24" rx="5" fill="#242424"><title>2025-06-17: 0 tokens</title></rect>
<rect x="28" y="114" width="24" height="24" rx="5" fill="#242424"><title>2025-06-18: 0 tokens</title></rect>
<rect x="28" y="144" width="24" height="24" rx="5" fill="#242424"><title>2025-06-19: 0 tokens</title></rect>
<rect x="28" y="174" width="24" height="24" rx="5" fill="#242424"><title>2025-06-20: 0 tokens</title></rect>
<rect x="28" y="204" width="24" height="24" rx="5" fill="#242424"><title>2025-06-21: 0 tokens</title></rect>
<rect x="58" y="24" width="24" height="24" rx="5" fill="#242424"><title>2025-06-22: 0 tokens</title></rect>
<rect x="58" y="54" width="24" height="24" rx="5" fill="#242424"><title>2025-06-23: 0 tokens</title></rect>
<rect x="58" y="84" width="24" height="24" rx="5" fill="#242424"><title>2025-06-24: 0 tokens</title></rect>
<rect x="58" y="114" width="24" height="24" rx="5" fill="#242424"><title>2025-06-25: 0 tokens</title></rect>
<rect x="58" y="144" width="24" height="24" rx="5" fill="#242424"><title>2025-06-26: 0 tokens</title></rect>
<rect x="58" y="174" width="24" height="24" rx="5" fill="#242424"><title>2025-06-27: 0 tokens</title></rect>
<rect x="58" y="204" width="24" height="24" rx="5" fill="#242424"><title>2025-06-28: 0 tokens</title></rect>
<rect x="88" y="24" width="24" height="24" rx="5" fill="#242424"><title>2025-06-29: 0 tokens</title></rect>
<rect x="88" y="54" width="24" height="24" rx="5" fill="#242424"><title>2025-06-30: 0 tokens</title></rect>
<rect x="88" y="84" width="24" height="24" rx="5" fill="#242424"><title>2025-07-01: 0 tokens</title></rect>
<text x="88" y="254" fill="#a7a7a7" font-size="14" font-family="-apple-system,BlinkMacSystemFont,Segoe UI,Helvetica,Arial,sans-serif" text-anchor="start">7月</text>
<rect x="88" y="114" width="24" height="24" rx="5" fill="#242424"><title>2025-07-02: 0 tokens</title></rect>
<rect x="88" y="144" width="24" height="24" rx="5" fill="#242424"><title>2025-07-03: 0 tokens</title></rect>
<rect x="88" y="174" width="24" height="24" rx="5" fill="#242424"><title>2025-07-04: 0 tokens</title></rect>
<rect x="88" y="204" width="24" height="24" rx="5" fill="#242424"><title>2025-07-05: 0 tokens</title></rect>
<rect x="118" y="24" width="24" height="24" rx="5" fill="#242424"><title>2025-07-06: 0 tokens</title></rect>
<rect x="118" y="54" width="24" height="24" rx="5" fill="#242424"><title>2025-07-07: 0 tokens</title></rect>
<rect x="118" y="84" width="24" height="24" rx="5" fill="#242424"><title>2025-07-08: 0 tokens</title></rect>
<rect x="118" y="114" width="24" height="24" rx="5" fill="#242424"><title>2025-07-09: 0 tokens</title></rect>
<rect x="118" y="144" width="24" height="24" rx="5" fill="#242424"><title>2025-07-10: 0 tokens</title></rect>
<rect x="118" y="174" width="24" height="24" rx="5" fill="#242424"><title>2025-07-11: 0 tokens</title></rect>
<rect x="118" y="204" width="24" height="24" rx="5" fill="#242424"><title>2025-07-12: 0 tokens</title></rect>
<rect x="148" y="24" width="24" height="24" rx="5" fill="#242424"><title>2025-07-13: 0 tokens</title></rect>
<rect x="148" y="54" width="24" height="24" rx="5" fill="#242424"><title>2025-07-14: 0 tokens</title></rect>
<rect x="148" y="84" width="24" height="24" rx="5" fill="#242424"><title>2025-07-15: 0 tokens</title></rect>
<rect x="148" y="114" width="24" height="24" rx="5" fill="#242424"><title>2025-07-16: 0 tokens</title></rect>
<rect x="148" y="144" width="24" height="24" rx="5" fill="#242424"><title>2025-07-17: 0 tokens</title></rect>
<rect x="148" y="174" width="24" height="24" rx="5" fill="#242424"><title>2025-07-18: 0 tokens</title></rect>
<rect x="148" y="204" width="24" height="24" rx="5" fill="#242424"><title>2025-07-19: 0 tokens</title></rect>
<rect x="178" y="24" width="24" height="24" rx="5" fill="#242424"><title>2025-07-20: 0 tokens</title></rect>
<rect x="178" y="54" width="24" height="24" rx="5" fill="#242424"><title>2025-07-21: 0 tokens</title></rect>
<rect x="178" y="84" width="24" height="24" rx="5" fill="#242424"><title>2025-07-22: 0 tokens</title></rect>
<rect x="178" y="114" width="24" height="24" rx="5" fill="#242424"><title>2025-07-23: 0 tokens</title></rect>
<rect x="178" y="144" width="24" height="24" rx="5" fill="#242424"><title>2025-07-24: 0 tokens</title></rect>
<rect x="178" y="174" width="24" height="24" rx="5" fill="#242424"><title>2025-07-25: 0 tokens</title></rect>
<rect x="178" y="204" width="24" height="24" rx="5" fill="#242424"><title>2025-07-26: 0 tokens</title></rect>
<rect x="208" y="24" width="24" height="24" rx="5" fill="#242424"><title>2025-07-27: 0 tokens</title></rect>
<rect x="208" y="54" width="24" height="24" rx="5" fill="#242424"><title>2025-07-28: 0 tokens</title></rect>
<rect x="208" y="84" width="24" height="24" rx="5" fill="#242424"><title>2025-07-29: 0 tokens</title></rect>
<rect x="208" y="114" width="24" height="24" rx="5" fill="#242424"><title>2025-07-30: 0 tokens</title></rect>
<rect x="208" y="144" width="24" height="24" rx="5" fill="#242424"><title>2025-07-31: 0 tokens</title></rect>
<rect x="208" y="174" width="24" height="24" rx="5" fill="#242424"><title>2025-08-01: 0 tokens</title></rect>
<text x="208" y="254" fill="#a7a7a7" font-size="14" font-family="-apple-system,BlinkMacSystemFont,Segoe UI,Helvetica,Arial,sans-serif" text-anchor="start">8月</text>
<rect x="208" y="204" width="24" height="24" rx="5" fill="#242424"><title>2025-08-02: 0 tokens</title></rect>
<rect x="238" y="24" width="24" height="24" rx="5" fill="#242424"><title>2025-08-03: 0 tokens</title></rect>
<rect x="238" y="54" width="24" height="24" rx="5" fill="#242424"><title>2025-08-04: 0 tokens</title></rect>
<rect x="238" y="84" width="24" height="24" rx="5" fill="#242424"><title>2025-08-05: 0 tokens</title></rect>
<rect x="238" y="114" width="24" height="24" rx="5" fill="#242424"><title>2025-08-06: 0 tokens</title></rect>
<rect x="238" y="144" width="24" height="24" rx="5" fill="#242424"><title>2025-08-07: 0 tokens</title></rect>
<rect x="238" y="174" width="24" height="24" rx="5" fill="#242424"><title>2025-08-08: 0 tokens</title></rect>
<rect x="238" y="204" width="24" height="24" rx="5" fill="#242424"><title>2025-08-09: 0 tokens</title></rect>
<rect x="268" y="24" width="24" height="24" rx="5" fill="#242424"><title>2025-08-10: 0 tokens</title></rect>
<rect x="268" y="54" width="24" height="24" rx="5" fill="#242424"><title>2025-08-11: 0 tokens</title></rect>
<rect x="268" y="84" width="24" height="24" rx="5" fill="#242424"><title>2025-08-12: 0 tokens</title></rect>
<rect x="268" y="114" width="24" height="24" rx="5" fill="#242424"><title>2025-08-13: 0 tokens</title></rect>
<rect x="268" y="144" width="24" height="24" rx="5" fill="#242424"><title>2025-08-14: 0 tokens</title></rect>
<rect x="268" y="174" width="24" height="24" rx="5" fill="#242424"><title>2025-08-15: 0 tokens</title></rect>
<rect x="268" y="204" width="24" height="24" rx="5" fill="#242424"><title>2025-08-16: 0 tokens</title></rect>
<rect x="298" y="24" width="24" height="24" rx="5" fill="#242424"><title>2025-08-17: 0 tokens</title></rect>
<rect x="298" y="54" width="24" height="24" rx="5" fill="#242424"><title>2025-08-18: 0 tokens</title></rect>
<rect x="298" y="84" width="24" height="24" rx="5" fill="#242424"><title>2025-08-19: 0 tokens</title></rect>
<rect x="298" y="114" width="24" height="24" rx="5" fill="#242424"><title>2025-08-20: 0 tokens</title></rect>
<rect x="298" y="144" width="24" height="24" rx="5" fill="#242424"><title>2025-08-21: 0 tokens</title></rect>
<rect x="298" y="174" width="24" height="24" rx="5" fill="#242424"><title>2025-08-22: 0 tokens</title></rect>
<rect x="298" y="204" width="24" height="24" rx="5" fill="#242424"><title>2025-08-23: 0 tokens</title></rect>
<rect x="328" y="24" width="24" height="24" rx="5" fill="#242424"><title>2025-08-24: 0 tokens</title></rect>
<rect x="328" y="54" width="24" height="24" rx="5" fill="#242424"><title>2025-08-25: 0 tokens</title></rect>
<rect x="328" y="84" width="24" height="24" rx="5" fill="#242424"><title>2025-08-26: 0 tokens</title></rect>
<rect x="328" y="114" width="24" height="24" rx="5" fill="#242424"><title>2025-08-27: 0 tokens</title></rect>
<rect x="328" y="144" width="24" height="24" rx="5" fill="#242424"><title>2025-08-28: 0 tokens</title></rect>
<rect x="328" y="174" width="24" height="24" rx="5" fill="#242424"><title>2025-08-29: 0 tokens</title></rect>
<rect x="328" y="204" width="24" height="24" rx="5" fill="#242424"><title>2025-08-30: 0 tokens</title></rect>
<rect x="358" y="24" width="24" height="24" rx="5" fill="#242424"><title>2025-08-31: 0 tokens</title></rect>
<rect x="358" y="54" width="24" height="24" rx="5" fill="#242424"><title>2025-09-01: 0 tokens</title></rect>
<text x="358" y="254" fill="#a7a7a7" font-size="14" font-family="-apple-system,BlinkMacSystemFont,Segoe UI,Helvetica,Arial,sans-serif" text-anchor="start">9月</text>
<rect x="358" y="84" width="24" height="24" rx="5" fill="#242424"><title>2025-09-02: 0 tokens</title></rect>
<rect x="358" y="114" width="24" height="24" rx="5" fill="#242424"><title>2025-09-03: 0 tokens</title></rect>
<rect x="358" y="144" width="24" height="24" rx="5" fill="#242424"><title>2025-09-04: 0 tokens</title></rect>
<rect x="358" y="174" width="24" height="24" rx="5" fill="#242424"><title>2025-09-05: 0 tokens</title></rect>
<rect x="358" y="204" width="24" height="24" rx="5" fill="#242424"><title>2025-09-06: 0 tokens</title></rect>
<rect x="388" y="24" width="24" height="24" rx="5" fill="#242424"><title>2025-09-07: 0 tokens</title></rect>
<rect x="388" y="54" width="24" height="24" rx="5" fill="#242424"><title>2025-09-08: 0 tokens</title></rect>
<rect x="388" y="84" width="24" height="24" rx="5" fill="#242424"><title>2025-09-09: 0 tokens</title></rect>
<rect x="388" y="114" width="24" height="24" rx="5" fill="#242424"><title>2025-09-10: 0 tokens</title></rect>
<rect x="388" y="144" width="24" height="24" rx="5" fill="#242424"><title>2025-09-11: 0 tokens</title></rect>
<rect x="388" y="174" width="24" height="24" rx="5" fill="#242424"><title>2025-09-12: 0 tokens</title></rect>
<rect x="388" y="204" width="24" height="24" rx="5" fill="#242424"><title>2025-09-13: 0 tokens</title></rect>
<rect x="418" y="24" width="24" height="24" rx="5" fill="#242424"><title>2025-09-14: 0 tokens</title></rect>
<rect x="418" y="54" width="24" height="24" rx="5" fill="#242424"><title>2025-09-15: 0 tokens</title></rect>
<rect x="418" y="84" width="24" height="24" rx="5" fill="#242424"><title>2025-09-16: 0 tokens</title></rect>
<rect x="418" y="114" width="24" height="24" rx="5" fill="#4b78a0"><title>2025-09-17: 262,512 tokens</title></rect>
<rect x="418" y="144" width="24" height="24" rx="5" fill="#4b78a0"><title>2025-09-18: 58,035 tokens</title></rect>
<rect x="418" y="174" width="24" height="24" rx="5" fill="#242424"><title>2025-09-19: 0 tokens</title></rect>
<rect x="418" y="204" width="24" height="24" rx="5" fill="#4b78a0"><title>2025-09-20: 415,646 tokens</title></rect>
<rect x="448" y="24" width="24" height="24" rx="5" fill="#4b78a0"><title>2025-09-21: 46,667 tokens</title></rect>
<rect x="448" y="54" width="24" height="24" rx="5" fill="#4b78a0"><title>2025-09-22: 88,057 tokens</title></rect>
<rect x="448" y="84" width="24" height="24" rx="5" fill="#4b78a0"><title>2025-09-23: 15,013 tokens</title></rect>
<rect x="448" y="114" width="24" height="24" rx="5" fill="#365575"><title>2025-09-24: 7,466 tokens</title></rect>
<rect x="448" y="144" width="24" height="24" rx="5" fill="#242424"><title>2025-09-25: 0 tokens</title></rect>
<rect x="448" y="174" width="24" height="24" rx="5" fill="#4b78a0"><title>2025-09-26: 157,439 tokens</title></rect>
<rect x="448" y="204" width="24" height="24" rx="5" fill="#242424"><title>2025-09-27: 0 tokens</title></rect>
<rect x="478" y="24" width="24" height="24" rx="5" fill="#365575"><title>2025-09-28: 7,734 tokens</title></rect>
<rect x="478" y="54" width="24" height="24" rx="5" fill="#242424"><title>2025-09-29: 0 tokens</title></rect>
<rect x="478" y="84" width="24" height="24" rx="5" fill="#242424"><title>2025-09-30: 0 tokens</title></rect>
<rect x="478" y="114" width="24" height="24" rx="5" fill="#242424"><title>2025-10-01: 0 tokens</title></rect>
<text x="478" y="254" fill="#a7a7a7" font-size="14" font-family="-apple-system,BlinkMacSystemFont,Segoe UI,Helvetica,Arial,sans-serif" text-anchor="start">10月</text>
<rect x="478" y="144" width="24" height="24" rx="5" fill="#242424"><title>2025-10-02: 0 tokens</title></rect>
<rect x="478" y="174" width="24" height="24" rx="5" fill="#242424"><title>2025-10-03: 0 tokens</title></rect>
<rect x="478" y="204" width="24" height="24" rx="5" fill="#242424"><title>2025-10-04: 0 tokens</title></rect>
<rect x="508" y="24" width="24" height="24" rx="5" fill="#242424"><title>2025-10-05: 0 tokens</title></rect>
<rect x="508" y="54" width="24" height="24" rx="5" fill="#242424"><title>2025-10-06: 0 tokens</title></rect>
<rect x="508" y="84" width="24" height="24" rx="5" fill="#242424"><title>2025-10-07: 0 tokens</title></rect>
<rect x="508" y="114" width="24" height="24" rx="5" fill="#7bc6ff"><title>2025-10-08: 1,766,252 tokens</title></rect>
<rect x="508" y="144" width="24" height="24" rx="5" fill="#4b78a0"><title>2025-10-09: 1,006,164 tokens</title></rect>
<rect x="508" y="174" width="24" height="24" rx="5" fill="#4b78a0"><title>2025-10-10: 114,417 tokens</title></rect>
<rect x="508" y="204" width="24" height="24" rx="5" fill="#4b78a0"><title>2025-10-11: 143,905 tokens</title></rect>
<rect x="538" y="24" width="24" height="24" rx="5" fill="#242424"><title>2025-10-12: 0 tokens</title></rect>
<rect x="538" y="54" width="24" height="24" rx="5" fill="#242424"><title>2025-10-13: 0 tokens</title></rect>
<rect x="538" y="84" width="24" height="24" rx="5" fill="#242424"><title>2025-10-14: 0 tokens</title></rect>
<rect x="538" y="114" width="24" height="24" rx="5" fill="#365575"><title>2025-10-15: 7,741 tokens</title></rect>
<rect x="538" y="144" width="24" height="24" rx="5" fill="#242424"><title>2025-10-16: 0 tokens</title></rect>
<rect x="538" y="174" width="24" height="24" rx="5" fill="#242424"><title>2025-10-17: 0 tokens</title></rect>
<rect x="538" y="204" width="24" height="24" rx="5" fill="#242424"><title>2025-10-18: 0 tokens</title></rect>
<rect x="568" y="24" width="24" height="24" rx="5" fill="#4b78a0"><title>2025-10-19: 196,899 tokens</title></rect>
<rect x="568" y="54" width="24" height="24" rx="5" fill="#242424"><title>2025-10-20: 0 tokens</title></rect>
<rect x="568" y="84" width="24" height="24" rx="5" fill="#365575"><title>2025-10-21: 7,535 tokens</title></rect>
<rect x="568" y="114" width="24" height="24" rx="5" fill="#242424"><title>2025-10-22: 0 tokens</title></rect>
<rect x="568" y="144" width="24" height="24" rx="5" fill="#242424"><title>2025-10-23: 0 tokens</title></rect>
<rect x="568" y="174" width="24" height="24" rx="5" fill="#242424"><title>2025-10-24: 0 tokens</title></rect>
<rect x="568" y="204" width="24" height="24" rx="5" fill="#242424"><title>2025-10-25: 0 tokens</title></rect>
<rect x="598" y="24" width="24" height="24" rx="5" fill="#4b78a0"><title>2025-10-26: 204,242 tokens</title></rect>
<rect x="598" y="54" width="24" height="24" rx="5" fill="#242424"><title>2025-10-27: 0 tokens</title></rect>
<rect x="598" y="84" width="24" height="24" rx="5" fill="#242424"><title>2025-10-28: 0 tokens</title></rect>
<rect x="598" y="114" width="24" height="24" rx="5" fill="#242424"><title>2025-10-29: 0 tokens</title></rect>
<rect x="598" y="144" width="24" height="24" rx="5" fill="#242424"><title>2025-10-30: 0 tokens</title></rect>
<rect x="598" y="174" width="24" height="24" rx="5" fill="#4b78a0"><title>2025-10-31: 181,427 tokens</title></rect>
<rect x="598" y="204" width="24" height="24" rx="5" fill="#242424"><title>2025-11-01: 0 tokens</title></rect>
<text x="598" y="254" fill="#a7a7a7" font-size="14" font-family="-apple-system,BlinkMacSystemFont,Segoe UI,Helvetica,Arial,sans-serif" text-anchor="start">11月</text>
<rect x="628" y="24" width="24" height="24" rx="5" fill="#242424"><title>2025-11-02: 0 tokens</title></rect>
<rect x="628" y="54" width="24" height="24" rx="5" fill="#4b78a0"><title>2025-11-03: 60,783 tokens</title></rect>
<rect x="628" y="84" width="24" height="24" rx="5" fill="#4b78a0"><title>2025-11-04: 1,020,214 tokens</title></rect>
<rect x="628" y="114" width="24" height="24" rx="5" fill="#4b78a0"><title>2025-11-05: 890,750 tokens</title></rect>
<rect x="628" y="144" width="24" height="24" rx="5" fill="#4b78a0"><title>2025-11-06: 34,325 tokens</title></rect>
<rect x="628" y="174" width="24" height="24" rx="5" fill="#7bc6ff"><title>2025-11-07: 2,746,207 tokens</title></rect>
<rect x="628" y="204" width="24" height="24" rx="5" fill="#242424"><title>2025-11-08: 0 tokens</title></rect>
<rect x="658" y="24" width="24" height="24" rx="5" fill="#242424"><title>2025-11-09: 0 tokens</title></rect>
<rect x="658" y="54" width="24" height="24" rx="5" fill="#4b78a0"><title>2025-11-10: 146,478 tokens</title></rect>
<rect x="658" y="84" width="24" height="24" rx="5" fill="#4b78a0"><title>2025-11-11: 624,070 tokens</title></rect>
<rect x="658" y="114" width="24" height="24" rx="5" fill="#4b78a0"><title>2025-11-12: 85,959 tokens</title></rect>
<rect x="658" y="144" width="24" height="24" rx="5" fill="#4b78a0"><title>2025-11-13: 24,407 tokens</title></rect>
<rect x="658" y="174" width="24" height="24" rx="5" fill="#242424"><title>2025-11-14: 0 tokens</title></rect>
<rect x="658" y="204" width="24" height="24" rx="5" fill="#242424"><title>2025-11-15: 0 tokens</title></rect>
<rect x="688" y="24" width="24" height="24" rx="5" fill="#242424"><title>2025-11-16: 0 tokens</title></rect>
<rect x="688" y="54" width="24" height="24" rx="5" fill="#242424"><title>2025-11-17: 0 tokens</title></rect>
<rect x="688" y="84" width="24" height="24" rx="5" fill="#4b78a0"><title>2025-11-18: 1,010,048 tokens</title></rect>
<rect x="688" y="114" width="24" height="24" rx="5" fill="#7bc6ff"><title>2025-11-19: 1,835,953 tokens</title></rect>
<rect x="688" y="144" width="24" height="24" rx="5" fill="#4b78a0"><title>2025-11-20: 202,084 tokens</title></rect>
<rect x="688" y="174" width="24" height="24" rx="5" fill="#7bc6ff"><title>2025-11-21: 7,864,277 tokens</title></rect>
<rect x="688" y="204" width="24" height="24" rx="5" fill="#4b78a0"><title>2025-11-22: 17,144 tokens</title></rect>
<rect x="718" y="24" width="24" height="24" rx="5" fill="#242424"><title>2025-11-23: 0 tokens</title></rect>
<rect x="718" y="54" width="24" height="24" rx="5" fill="#7bc6ff"><title>2025-11-24: 1,595,303 tokens</title></rect>
<rect x="718" y="84" width="24" height="24" rx="5" fill="#4b78a0"><title>2025-11-25: 858,899 tokens</title></rect>
<rect x="718" y="114" width="24" height="24" rx="5" fill="#4b78a0"><title>2025-11-26: 1,003,381 tokens</title></rect>
<rect x="718" y="144" width="24" height="24" rx="5" fill="#7bc6ff"><title>2025-11-27: 6,030,002 tokens</title></rect>
<rect x="718" y="174" width="24" height="24" rx="5" fill="#4b78a0"><title>2025-11-28: 1,251,518 tokens</title></rect>
<rect x="718" y="204" width="24" height="24" rx="5" fill="#4b78a0"><title>2025-11-29: 211,484 tokens</title></rect>
<rect x="748" y="24" width="24" height="24" rx="5" fill="#4b78a0"><title>2025-11-30: 557,335 tokens</title></rect>
<rect x="748" y="54" width="24" height="24" rx="5" fill="#4b78a0"><title>2025-12-01: 1,247,458 tokens</title></rect>
<text x="748" y="254" fill="#a7a7a7" font-size="14" font-family="-apple-system,BlinkMacSystemFont,Segoe UI,Helvetica,Arial,sans-serif" text-anchor="start">12月</text>
<rect x="748" y="84" width="24" height="24" rx="5" fill="#4b78a0"><title>2025-12-02: 576,599 tokens</title></rect>
<rect x="748" y="114" width="24" height="24" rx="5" fill="#4b78a0"><title>2025-12-03: 374,760 tokens</title></rect>
<rect x="748" y="144" width="24" height="24" rx="5" fill="#4b78a0"><title>2025-12-04: 1,249,056 tokens</title></rect>
<rect x="748" y="174" width="24" height="24" rx="5" fill="#4b78a0"><title>2025-12-05: 455,555 tokens</title></rect>
<rect x="748" y="204" width="24" height="24" rx="5" fill="#7bc6ff"><title>2025-12-06: 3,354,080 tokens</title></rect>
<rect x="778" y="24" width="24" height="24" rx="5" fill="#4b78a0"><title>2025-12-07: 188,098 tokens</title></rect>
<rect x="778" y="54" width="24" height="24" rx="5" fill="#7bc6ff"><title>2025-12-08: 2,960,626 tokens</title></rect>
<rect x="778" y="84" width="24" height="24" rx="5" fill="#242424"><title>2025-12-09: 0 tokens</title></rect>
<rect x="778" y="114" width="24" height="24" rx="5" fill="#7bc6ff"><title>2025-12-10: 5,388,074 tokens</title></rect>
<rect x="778" y="144" width="24" height="24" rx="5" fill="#7bc6ff"><title>2025-12-11: 1,996,453 tokens</title></rect>
<rect x="778" y="174" width="24" height="24" rx="5" fill="#4b78a0"><title>2025-12-12: 1,030,574 tokens</title></rect>
<rect x="778" y="204" width="24" height="24" rx="5" fill="#4b78a0"><title>2025-12-13: 351,249 tokens</title></rect>
<rect x="808" y="24" width="24" height="24" rx="5" fill="#7bc6ff"><title>2025-12-14: 12,627,579 tokens</title></rect>
<rect x="808" y="54" width="24" height="24" rx="5" fill="#7bc6ff"><title>2025-12-15: 2,208,275 tokens</title></rect>
<rect x="808" y="84" width="24" height="24" rx="5" fill="#7bc6ff"><title>2025-12-16: 3,015,319 tokens</title></rect>
<rect x="808" y="114" width="24" height="24" rx="5" fill="#7bc6ff"><title>2025-12-17: 1,280,423 tokens</title></rect>
<rect x="808" y="144" width="24" height="24" rx="5" fill="#7bc6ff"><title>2025-12-18: 4,071,893 tokens</title></rect>
<rect x="808" y="174" width="24" height="24" rx="5" fill="#7bc6ff"><title>2025-12-19: 9,550,989 tokens</title></rect>
<rect x="808" y="204" width="24" height="24" rx="5" fill="#4b78a0"><title>2025-12-20: 820,428 tokens</title></rect>
<rect x="838" y="24" width="24" height="24" rx="5" fill="#242424"><title>2025-12-21: 0 tokens</title></rect>
<rect x="838" y="54" width="24" height="24" rx="5" fill="#4b78a0"><title>2025-12-22: 13,994 tokens</title></rect>
<rect x="838" y="84" width="24" height="24" rx="5" fill="#242424"><title>2025-12-23: 0 tokens</title></rect>
<rect x="838" y="114" width="24" height="24" rx="5" fill="#242424"><title>2025-12-24: 0 tokens</title></rect>
<rect x="838" y="144" width="24" height="24" rx="5" fill="#242424"><title>2025-12-25: 0 tokens</title></rect>
<rect x="838" y="174" width="24" height="24" rx="5" fill="#4b78a0"><title>2025-12-26: 135,294 tokens</title></rect>
<rect x="838" y="204" width="24" height="24" rx="5" fill="#242424"><title>2025-12-27: 0 tokens</title></rect>
<rect x="868" y="24" width="24" height="24" rx="5" fill="#7bc6ff"><title>2025-12-28: 7,240,548 tokens</title></rect>
<rect x="868" y="54" width="24" height="24" rx="5" fill="#4b78a0"><title>2025-12-29: 19,408 tokens</title></rect>
<rect x="868" y="84" width="24" height="24" rx="5" fill="#242424"><title>2025-12-30: 0 tokens</title></rect>
<rect x="868" y="114" width="24" height="24" rx="5" fill="#4b78a0"><title>2025-12-31: 94,703 tokens</title></rect>
<rect x="868" y="144" width="24" height="24" rx="5" fill="#242424"><title>2026-01-01: 0 tokens</title></rect>
<text x="868" y="254" fill="#a7a7a7" font-size="14" font-family="-apple-system,BlinkMacSystemFont,Segoe UI,Helvetica,Arial,sans-serif" text-anchor="start">1月</text>
<rect x="868" y="174" width="24" height="24" rx="5" fill="#242424"><title>2026-01-02: 0 tokens</title></rect>
<rect x="868" y="204" width="24" height="24" rx="5" fill="#242424"><title>2026-01-03: 0 tokens</title></rect>
<rect x="898" y="24" width="24" height="24" rx="5" fill="#4b78a0"><title>2026-01-04: 30,319 tokens</title></rect>
<rect x="898" y="54" width="24" height="24" rx="5" fill="#242424"><title>2026-01-05: 0 tokens</title></rect>
<rect x="898" y="84" width="24" height="24" rx="5" fill="#242424"><title>2026-01-06: 0 tokens</title></rect>
<rect x="898" y="114" width="24" height="24" rx="5" fill="#242424"><title>2026-01-07: 0 tokens</title></rect>
<rect x="898" y="144" width="24" height="24" rx="5" fill="#242424"><title>2026-01-08: 0 tokens</title></rect>
<rect x="898" y="174" width="24" height="24" rx="5" fill="#242424"><title>2026-01-09: 0 tokens</title></rect>
<rect x="898" y="204" width="24" height="24" rx="5" fill="#242424"><title>2026-01-10: 0 tokens</title></rect>
<rect x="928" y="24" width="24" height="24" rx="5" fill="#242424"><title>2026-01-11: 0 tokens</title></rect>
<rect x="928" y="54" width="24" height="24" rx="5" fill="#7bc6ff"><title>2026-01-12: 8,061,452 tokens</title></rect>
<rect x="928" y="84" width="24" height="24" rx="5" fill="#7bc6ff"><title>2026-01-13: 3,459,188 tokens</title></rect>
<rect x="928" y="114" width="24" height="24" rx="5" fill="#242424"><title>2026-01-14: 0 tokens</title></rect>
<rect x="928" y="144" width="24" height="24" rx="5" fill="#4b78a0"><title>2026-01-15: 263,827 tokens</title></rect>
<rect x="928" y="174" width="24" height="24" rx="5" fill="#4b78a0"><title>2026-01-16: 286,078 tokens</title></rect>
<rect x="928" y="204" width="24" height="24" rx="5" fill="#242424"><title>2026-01-17: 0 tokens</title></rect>
<rect x="958" y="24" width="24" height="24" rx="5" fill="#4b78a0"><title>2026-01-18: 249,423 tokens</title></rect>
<rect x="958" y="54" width="24" height="24" rx="5" fill="#4b78a0"><title>2026-01-19: 1,067,763 tokens</title></rect>
<rect x="958" y="84" width="24" height="24" rx="5" fill="#4b78a0"><title>2026-01-20: 227,305 tokens</title></rect>
<rect x="958" y="114" width="24" height="24" rx="5" fill="#365575"><title>2026-01-21: 5,831 tokens</title></rect>
<rect x="958" y="144" width="24" height="24" rx="5" fill="#7bc6ff"><title>2026-01-22: 1,487,243 tokens</title></rect>
<rect x="958" y="174" width="24" height="24" rx="5" fill="#7bc6ff"><title>2026-01-23: 1,506,994 tokens</title></rect>
<rect x="958" y="204" width="24" height="24" rx="5" fill="#7bc6ff"><title>2026-01-24: 13,806,070 tokens</title></rect>
<rect x="988" y="24" width="24" height="24" rx="5" fill="#4b78a0"><title>2026-01-25: 494,865 tokens</title></rect>
<rect x="988" y="54" width="24" height="24" rx="5" fill="#7bc6ff"><title>2026-01-26: 2,012,646 tokens</title></rect>
<rect x="988" y="84" width="24" height="24" rx="5" fill="#7bc6ff"><title>2026-01-27: 1,963,755 tokens</title></rect>
<rect x="988" y="114" width="24" height="24" rx="5" fill="#7bc6ff"><title>2026-01-28: 1,705,246 tokens</title></rect>
<rect x="988" y="144" width="24" height="24" rx="5" fill="#7bc6ff"><title>2026-01-29: 1,329,994 tokens</title></rect>
<rect x="988" y="174" width="24" height="24" rx="5" fill="#4b78a0"><title>2026-01-30: 202,677 tokens</title></rect>
<rect x="988" y="204" width="24" height="24" rx="5" fill="#242424"><title>2026-01-31: 0 tokens</title></rect>
<rect x="1018" y="24" width="24" height="24" rx="5" fill="#242424"><title>2026-02-01: 0 tokens</title></rect>
<text x="1018" y="254" fill="#a7a7a7" font-size="14" font-family="-apple-system,BlinkMacSystemFont,Segoe UI,Helvetica,Arial,sans-serif" text-anchor="start">2月</text>
<rect x="1018" y="54" width="24" height="24" rx="5" fill="#242424"><title>2026-02-02: 0 tokens</title></rect>
<rect x="1018" y="84" width="24" height="24" rx="5" fill="#242424"><title>2026-02-03: 0 tokens</title></rect>
<rect x="1018" y="114" width="24" height="24" rx="5" fill="#242424"><title>2026-02-04: 0 tokens</title></rect>
<rect x="1018" y="144" width="24" height="24" rx="5" fill="#242424"><title>2026-02-05: 0 tokens</title></rect>
<rect x="1018" y="174" width="24" height="24" rx="5" fill="#242424"><title>2026-02-06: 0 tokens</title></rect>
<rect x="1018" y="204" width="24" height="24" rx="5" fill="#4b78a0"><title>2026-02-07: 622,043 tokens</title></rect>
<rect x="1048" y="24" width="24" height="24" rx="5" fill="#242424"><title>2026-02-08: 0 tokens</title></rect>
<rect x="1048" y="54" width="24" height="24" rx="5" fill="#242424"><title>2026-02-09: 0 tokens</title></rect>
<rect x="1048" y="84" width="24" height="24" rx="5" fill="#242424"><title>2026-02-10: 0 tokens</title></rect>
<rect x="1048" y="114" width="24" height="24" rx="5" fill="#242424"><title>2026-02-11: 0 tokens</title></rect>
<rect x="1048" y="144" width="24" height="24" rx="5" fill="#242424"><title>2026-02-12: 0 tokens</title></rect>
<rect x="1048" y="174" width="24" height="24" rx="5" fill="#242424"><title>2026-02-13: 0 tokens</title></rect>
<rect x="1048" y="204" width="24" height="24" rx="5" fill="#242424"><title>2026-02-14: 0 tokens</title></rect>
<rect x="1078" y="24" width="24" height="24" rx="5" fill="#242424"><title>2026-02-15: 0 tokens</title></rect>
<rect x="1078" y="54" width="24" height="24" rx="5" fill="#242424"><title>2026-02-16: 0 tokens</title></rect>
<rect x="1078" y="84" width="24" height="24" rx="5" fill="#242424"><title>2026-02-17: 0 tokens</title></rect>
<rect x="1078" y="114" width="24" height="24" rx="5" fill="#242424"><title>2026-02-18: 0 tokens</title></rect>
<rect x="1078" y="144" width="24" height="24" rx="5" fill="#242424"><title>2026-02-19: 0 tokens</title></rect>
<rect x="1078" y="174" width="24" height="24" rx="5" fill="#242424"><title>2026-02-20: 0 tokens</title></rect>
<rect x="1078" y="204" width="24" height="24" rx="5" fill="#242424"><title>2026-02-21: 0 tokens</title></rect>
<rect x="1108" y="24" width="24" height="24" rx="5" fill="#242424"><title>2026-02-22: 0 tokens</title></rect>
<rect x="1108" y="54" width="24" height="24" rx="5" fill="#242424"><title>2026-02-23: 0 tokens</title></rect>
<rect x="1108" y="84" width="24" height="24" rx="5" fill="#242424"><title>2026-02-24: 0 tokens</title></rect>
<rect x="1108" y="114" width="24" height="24" rx="5" fill="#242424"><title>2026-02-25: 0 tokens</title></rect>
<rect x="1108" y="144" width="24" height="24" rx="5" fill="#242424"><title>2026-02-26: 0 tokens</title></rect>
<rect x="1108" y="174" width="24" height="24" rx="5" fill="#242424"><title>2026-02-27: 0 tokens</title></rect>
<rect x="1108" y="204" width="24" height="24" rx="5" fill="#242424"><title>2026-02-28: 0 tokens</title></rect>
<rect x="1138" y="24" width="24" height="24" rx="5" fill="#242424"><title>2026-03-01: 0 tokens</title></rect>
<text x="1138" y="254" fill="#a7a7a7" font-size="14" font-family="-apple-system,BlinkMacSystemFont,Segoe UI,Helvetica,Arial,sans-serif" text-anchor="start">3月</text>
<rect x="1138" y="54" width="24" height="24" rx="5" fill="#4b78a0"><title>2026-03-02: 39,262 tokens</title></rect>
<rect x="1138" y="84" width="24" height="24" rx="5" fill="#7bc6ff"><title>2026-03-03: 1,580,985 tokens</title></rect>
<rect x="1138" y="114" width="24" height="24" rx="5" fill="#242424"><title>2026-03-04: 0 tokens</title></rect>
<rect x="1138" y="144" width="24" height="24" rx="5" fill="#242424"><title>2026-03-05: 0 tokens</title></rect>
<rect x="1138" y="174" width="24" height="24" rx="5" fill="#7bc6ff"><title>2026-03-06: 1,894,692 tokens</title></rect>
<rect x="1138" y="204" width="24" height="24" rx="5" fill="#7bc6ff"><title>2026-03-07: 4,468,325 tokens</title></rect>
<rect x="1168" y="24" width="24" height="24" rx="5" fill="#4b78a0"><title>2026-03-08: 1,158,839 tokens</title></rect>
<rect x="1168" y="54" width="24" height="24" rx="5" fill="#7bc6ff"><title>2026-03-09: 4,016,817 tokens</title></rect>
<rect x="1168" y="84" width="24" height="24" rx="5" fill="#242424"><title>2026-03-10: 0 tokens</title></rect>
<rect x="1168" y="114" width="24" height="24" rx="5" fill="#242424"><title>2026-03-11: 0 tokens</title></rect>
<rect x="1168" y="144" width="24" height="24" rx="5" fill="#242424"><title>2026-03-12: 0 tokens</title></rect>
<rect x="1168" y="174" width="24" height="24" rx="5" fill="#242424"><title>2026-03-13: 0 tokens</title></rect>
<rect x="1168" y="204" width="24" height="24" rx="5" fill="#242424"><title>2026-03-14: 0 tokens</title></rect>
<rect x="1198" y="24" width="24" height="24" rx="5" fill="#4b78a0"><title>2026-03-15: 574,976 tokens</title></rect>
<rect x="1198" y="54" width="24" height="24" rx="5" fill="#7bc6ff"><title>2026-03-16: 5,851,119 tokens</title></rect>
<rect x="1198" y="84" width="24" height="24" rx="5" fill="#7bc6ff"><title>2026-03-17: 18,009,685 tokens</title></rect>
<rect x="1198" y="114" width="24" height="24" rx="5" fill="#7bc6ff"><title>2026-03-18: 18,302,381 tokens</title></rect>
<rect x="1198" y="144" width="24" height="24" rx="5" fill="#7bc6ff"><title>2026-03-19: 20,885,618 tokens</title></rect>
<rect x="1198" y="174" width="24" height="24" rx="5" fill="#7bc6ff"><title>2026-03-20: 19,429,989 tokens</title></rect>
<rect x="1198" y="204" width="24" height="24" rx="5" fill="#7bc6ff"><title>2026-03-21: 1,760,407 tokens</title></rect>
<rect x="1228" y="24" width="24" height="24" rx="5" fill="#7bc6ff"><title>2026-03-22: 19,896,585 tokens</title></rect>
<rect x="1228" y="54" width="24" height="24" rx="5" fill="#7bc6ff"><title>2026-03-23: 20,369,189 tokens</title></rect>
<rect x="1228" y="84" width="24" height="24" rx="5" fill="#7bc6ff"><title>2026-03-24: 23,947,902 tokens</title></rect>
<rect x="1228" y="114" width="24" height="24" rx="5" fill="#7bc6ff"><title>2026-03-25: 26,176,427 tokens</title></rect>
<rect x="1228" y="144" width="24" height="24" rx="5" fill="#7bc6ff"><title>2026-03-26: 8,390,443 tokens</title></rect>
<rect x="1228" y="174" width="24" height="24" rx="5" fill="#242424"><title>2026-03-27: 0 tokens</title></rect>
<rect x="1228" y="204" width="24" height="24" rx="5" fill="#242424"><title>2026-03-28: 0 tokens</title></rect>
<rect x="1258" y="24" width="24" height="24" rx="5" fill="#242424"><title>2026-03-29: 0 tokens</title></rect>
<rect x="1258" y="54" width="24" height="24" rx="5" fill="#7bc6ff"><title>2026-03-30: 11,313,228 tokens</title></rect>
<rect x="1258" y="84" width="24" height="24" rx="5" fill="#7bc6ff"><title>2026-03-31: 1,692,372 tokens</title></rect>
<rect x="1258" y="114" width="24" height="24" rx="5" fill="#7bc6ff"><title>2026-04-01: 6,318,487 tokens</title></rect>
<text x="1258" y="254" fill="#a7a7a7" font-size="14" font-family="-apple-system,BlinkMacSystemFont,Segoe UI,Helvetica,Arial,sans-serif" text-anchor="start">4月</text>
<rect x="1258" y="144" width="24" height="24" rx="5" fill="#7bc6ff"><title>2026-04-02: 15,039,109 tokens</title></rect>
<rect x="1258" y="174" width="24" height="24" rx="5" fill="#4b78a0"><title>2026-04-03: 108,640 tokens</title></rect>
<rect x="1258" y="204" width="24" height="24" rx="5" fill="#4b78a0"><title>2026-04-04: 619,789 tokens</title></rect>
<rect x="1288" y="24" width="24" height="24" rx="5" fill="#4b78a0"><title>2026-04-05: 237,176 tokens</title></rect>
<rect x="1288" y="54" width="24" height="24" rx="5" fill="#7bc6ff"><title>2026-04-06: 10,865,881 tokens</title></rect>
<rect x="1288" y="84" width="24" height="24" rx="5" fill="#7bc6ff"><title>2026-04-07: 16,878,092 tokens</title></rect>
<rect x="1288" y="114" width="24" height="24" rx="5" fill="#7bc6ff"><title>2026-04-08: 18,198,319 tokens</title></rect>
<rect x="1288" y="144" width="24" height="24" rx="5" fill="#7bc6ff"><title>2026-04-09: 1,561,770 tokens</title></rect>
<rect x="1288" y="174" width="24" height="24" rx="5" fill="#7bc6ff"><title>2026-04-10: 8,346,823 tokens</title></rect>
<rect x="1288" y="204" width="24" height="24" rx="5" fill="#7bc6ff"><title>2026-04-11: 27,492,942 tokens</title></rect>
<rect x="1318" y="24" width="24" height="24" rx="5" fill="#7bc6ff"><title>2026-04-12: 20,137,519 tokens</title></rect>
<rect x="1318" y="54" width="24" height="24" rx="5" fill="#7bc6ff"><title>2026-04-13: 19,795,802 tokens</title></rect>
<rect x="1318" y="84" width="24" height="24" rx="5" fill="#4b78a0"><title>2026-04-14: 1,122,244 tokens</title></rect>
<rect x="1318" y="114" width="24" height="24" rx="5" fill="#7bc6ff"><title>2026-04-15: 11,428,640 tokens</title></rect>
<rect x="1318" y="144" width="24" height="24" rx="5" fill="#7bc6ff"><title>2026-04-16: 24,001,171 tokens</title></rect>
<rect x="1318" y="174" width="24" height="24" rx="5" fill="#4b78a0"><title>2026-04-17: 278,055 tokens</title></rect>
<rect x="1318" y="204" width="24" height="24" rx="5" fill="#242424"><title>2026-04-18: 0 tokens</title></rect>
<rect x="1348" y="24" width="24" height="24" rx="5" fill="#242424"><title>2026-04-19: 0 tokens</title></rect>
<rect x="1348" y="54" width="24" height="24" rx="5" fill="#7bc6ff"><title>2026-04-20: 17,821,362 tokens</title></rect>
<rect x="1348" y="84" width="24" height="24" rx="5" fill="#7bc6ff"><title>2026-04-21: 16,747,097 tokens</title></rect>
<rect x="1348" y="114" width="24" height="24" rx="5" fill="#7bc6ff"><title>2026-04-22: 11,821,207 tokens</title></rect>
<rect x="1348" y="144" width="24" height="24" rx="5" fill="#7bc6ff"><title>2026-04-23: 4,233,864 tokens</title></rect>
<rect x="1348" y="174" width="24" height="24" rx="5" fill="#7bc6ff"><title>2026-04-24: 29,574,179 tokens</title></rect>
<rect x="1348" y="204" width="24" height="24" rx="5" fill="#7bc6ff"><title>2026-04-25: 2,437,426 tokens</title></rect>
<rect x="1378" y="24" width="24" height="24" rx="5" fill="#7bc6ff"><title>2026-04-26: 18,542,853 tokens</title></rect>
<rect x="1378" y="54" width="24" height="24" rx="5" fill="#7bc6ff"><title>2026-04-27: 24,781,002 tokens</title></rect>
<rect x="1378" y="84" width="24" height="24" rx="5" fill="#7bc6ff"><title>2026-04-28: 8,304,402 tokens</title></rect>
<rect x="1378" y="114" width="24" height="24" rx="5" fill="#7bc6ff"><title>2026-04-29: 12,069,312 tokens</title></rect>
<rect x="1378" y="144" width="24" height="24" rx="5" fill="#242424"><title>2026-04-30: 0 tokens</title></rect>
<rect x="1378" y="174" width="24" height="24" rx="5" fill="#242424"><title>2026-05-01: 0 tokens</title></rect>
<text x="1378" y="254" fill="#a7a7a7" font-size="14" font-family="-apple-system,BlinkMacSystemFont,Segoe UI,Helvetica,Arial,sans-serif" text-anchor="start">5月</text>
<rect x="1378" y="204" width="24" height="24" rx="5" fill="#242424"><title>2026-05-02: 0 tokens</title></rect>
<rect x="1408" y="24" width="24" height="24" rx="5" fill="#242424"><title>2026-05-03: 0 tokens</title></rect>
<rect x="1408" y="54" width="24" height="24" rx="5" fill="#242424"><title>2026-05-04: 0 tokens</title></rect>
<rect x="1408" y="84" width="24" height="24" rx="5" fill="#242424"><title>2026-05-05: 0 tokens</title></rect>
<rect x="1408" y="114" width="24" height="24" rx="5" fill="#7bc6ff"><title>2026-05-06: 34,389,062 tokens</title></rect>
<rect x="1408" y="144" width="24" height="24" rx="5" fill="#7bc6ff"><title>2026-05-07: 135,458,881 tokens</title></rect>
<rect x="1408" y="174" width="24" height="24" rx="5" fill="#7bc6ff"><title>2026-05-08: 67,395,442 tokens</title></rect>
<rect x="1408" y="204" width="24" height="24" rx="5" fill="#7bc6ff"><title>2026-05-09: 5,757,012 tokens</title></rect>
<rect x="1438" y="24" width="24" height="24" rx="5" fill="#4b78a0"><title>2026-05-10: 670,139 tokens</title></rect>
<rect x="1438" y="54" width="24" height="24" rx="5" fill="#242424"><title>2026-05-11: 0 tokens</title></rect>
<rect x="1438" y="84" width="24" height="24" rx="5" fill="#242424"><title>2026-05-12: 0 tokens</title></rect>
<rect x="1438" y="114" width="24" height="24" rx="5" fill="#7bc6ff"><title>2026-05-13: 48,916,200 tokens</title></rect>
<rect x="1438" y="144" width="24" height="24" rx="5" fill="#7bc6ff"><title>2026-05-14: 54,288,834 tokens</title></rect>
<rect x="1438" y="174" width="24" height="24" rx="5" fill="#7bc6ff"><title>2026-05-15: 24,787,289 tokens</title></rect>
<rect x="1438" y="204" width="24" height="24" rx="5" fill="#242424"><title>2026-05-16: 0 tokens</title></rect>
<rect x="1468" y="24" width="24" height="24" rx="5" fill="#7bc6ff"><title>2026-05-17: 26,628,616 tokens</title></rect>
<rect x="1468" y="54" width="24" height="24" rx="5" fill="#7bc6ff"><title>2026-05-18: 4,648,629 tokens</title></rect>
<rect x="1468" y="84" width="24" height="24" rx="5" fill="#4b78a0"><title>2026-05-19: 384,716 tokens</title></rect>
<rect x="1468" y="114" width="24" height="24" rx="5" fill="#7bc6ff"><title>2026-05-20: 40,605,493 tokens</title></rect>
<rect x="1468" y="144" width="24" height="24" rx="5" fill="#7bc6ff"><title>2026-05-21: 15,031,474 tokens</title></rect>
<rect x="1468" y="174" width="24" height="24" rx="5" fill="#7bc6ff"><title>2026-05-22: 55,575,100 tokens</title></rect>
<rect x="1468" y="204" width="24" height="24" rx="5" fill="#7bc6ff"><title>2026-05-23: 47,926,622 tokens</title></rect>
<rect x="1498" y="24" width="24" height="24" rx="5" fill="#7bc6ff"><title>2026-05-24: 29,489,306 tokens</title></rect>
<rect x="1498" y="54" width="24" height="24" rx="5" fill="#242424"><title>2026-05-25: 0 tokens</title></rect>
<rect x="1498" y="84" width="24" height="24" rx="5" fill="#7bc6ff"><title>2026-05-26: 10,882,110 tokens</title></rect>
<rect x="1498" y="114" width="24" height="24" rx="5" fill="#7bc6ff"><title>2026-05-27: 7,260,913 tokens</title></rect>
<rect x="1498" y="144" width="24" height="24" rx="5" fill="#7bc6ff"><title>2026-05-28: 41,236,980 tokens</title></rect>
<rect x="1498" y="174" width="24" height="24" rx="5" fill="#7bc6ff"><title>2026-05-29: 51,551,537 tokens</title></rect>
<rect x="1498" y="204" width="24" height="24" rx="5" fill="#7bc6ff"><title>2026-05-30: 32,966,644 tokens</title></rect>
<rect x="1528" y="24" width="24" height="24" rx="5" fill="#242424"><title>2026-05-31: 0 tokens</title></rect>
<rect x="1528" y="54" width="24" height="24" rx="5" fill="#7bc6ff"><title>2026-06-01: 34,452,894 tokens</title></rect>
<text x="1528" y="254" fill="#a7a7a7" font-size="14" font-family="-apple-system,BlinkMacSystemFont,Segoe UI,Helvetica,Arial,sans-serif" text-anchor="start">6月</text>
<rect x="1528" y="84" width="24" height="24" rx="5" fill="#7bc6ff"><title>2026-06-02: 53,618,264 tokens</title></rect>
<rect x="1528" y="114" width="24" height="24" rx="5" fill="#7bc6ff"><title>2026-06-03: 71,965,864 tokens</title></rect>
<rect x="1528" y="144" width="24" height="24" rx="5" fill="#7bc6ff"><title>2026-06-04: 58,193,638 tokens</title></rect>
<rect x="1528" y="174" width="24" height="24" rx="5" fill="#7bc6ff"><title>2026-06-05: 65,672,536 tokens</title></rect>
<rect x="1528" y="204" width="24" height="24" rx="5" fill="#7bc6ff"><title>2026-06-06: 25,875,689 tokens</title></rect>
<rect x="1558" y="24" width="24" height="24" rx="5" fill="#7bc6ff"><title>2026-06-07: 3,355,366 tokens</title></rect>
<rect x="1558" y="54" width="24" height="24" rx="5" fill="#242424"><title>2026-06-08: 0 tokens</title></rect>
<rect x="1558" y="84" width="24" height="24" rx="5" fill="#242424"><title>2026-06-09: 0 tokens</title></rect>
<rect x="1558" y="114" width="24" height="24" rx="5" fill="#242424"><title>2026-06-10: 0 tokens</title></rect>
<rect x="1558" y="144" width="24" height="24" rx="5" fill="#7bc6ff"><title>2026-06-11: 10,654,660 tokens</title></rect>
<rect x="1558" y="174" width="24" height="24" rx="5" fill="#7bc6ff"><title>2026-06-12: 1,765,289 tokens</title></rect>
<rect x="1558" y="204" width="24" height="24" rx="5" fill="#7bc6ff"><title>2026-06-13: 1,470,840 tokens</title></rect>
<rect x="1588" y="24" width="24" height="24" rx="5" fill="#4b78a0"><title>2026-06-14: 252,167 tokens</title></rect>
<rect x="1588" y="54" width="24" height="24" rx="5" fill="#7bc6ff"><title>2026-06-15: 26,299,862 tokens</title></rect>
<rect x="1588" y="84" width="24" height="24" rx="5" fill="#242424"><title>2026-06-16: 0 tokens</title></rect>
<rect x="1588" y="114" width="24" height="24" rx="5" fill="#242424"><title>2026-06-17: 0 tokens</title></rect>
</svg>